<?xml version="1.0" encoding="utf-8"?>
<!-- Generator: Adobe Illustrator 22.1.0, SVG Export Plug-In . SVG Version: 6.00 Build 0)  -->
<svg version="1.1" id="Layer_1" xmlns="http://www.w3.org/2000/svg" xmlns:xlink="http://www.w3.org/1999/xlink" x="0px" y="0px"
	 viewBox="0 0 409.1 232.7" style="enable-background:new 0 0 409.1 232.7;" xml:space="preserve">
<style type="text/css">
	.st0{fill:#F9ED23;}
</style>
<path class="st0" d="M287.1,113.6c0,44.7-36.2,81-81,81c-44.7,0-81-36.2-81-81c0-44.7,36.2-81,81-81
	C250.8,32.6,287.1,68.8,287.1,113.6z"/>
<g>
	<path class="st0" d="M217.9,22.8l-11.7-20l-11.7,20c3.8-0.5,7.8-0.7,11.7-0.7C210.1,22,214,22.3,217.9,22.8z"/>
	<path class="st0" d="M246.7,12.2L229.4,25c7,1.8,13.7,4.5,19.9,7.8L246.7,12.2z"/>
	<path class="st0" d="M275.4,53.7l4.8-21.1L259,38.9C265.1,43.1,270.6,48.1,275.4,53.7z"/>
	<path class="st0" d="M301.9,62.4l-20.4-0.7c3.9,5.7,7.2,11.8,9.8,18.3L301.9,62.4z"/>
	<path class="st0" d="M297.6,116.8l18.1-13l-20.1-9.5c1.3,6.2,2,12.6,2,19.2C297.7,114.6,297.6,115.7,297.6,116.8z"/>
	<path class="st0" d="M311.5,144.9l-15-16.8c-1.2,7.5-3.3,14.8-6.2,21.6L311.5,144.9z"/>
	<path class="st0" d="M294.2,180.1l-8.5-21.4c-3.8,6.7-8.5,12.9-13.8,18.4L294.2,180.1z"/>
	<path class="st0" d="M266.6,204.4l-1.2-21.1c-5.4,4.6-11.4,8.6-17.8,11.9L266.6,204.4z"/>
	<path class="st0" d="M228.2,221.1l6.8-20.7c-6.9,2.3-14.2,3.8-21.8,4.4L228.2,221.1z"/>
	<path class="st0" d="M186.9,222l14.9-17.1c-7.7-0.4-15.2-1.7-22.4-3.9L186.9,222z"/>
	<path class="st0" d="M149.8,209.3l20.7-11.3c-7.4-3.1-14.3-7.2-20.5-12L149.8,209.3z"/>
	<path class="st0" d="M129.5,163.6l-7.2,21.2l21.8-4C138.5,175.7,133.6,169.9,129.5,163.6z"/>
	<path class="st0" d="M99.9,147.2l23.4,5.4c-3.4-7.2-5.9-15-7.3-23.1L99.9,147.2z"/>
	<path class="st0" d="M116.2,96.5l-20.9,9.7l19.6,14.2c-0.2-2.3-0.3-4.5-0.3-6.8C114.6,107.7,115.1,102,116.2,96.5z"/>
	<path class="st0" d="M104.7,68.1l13.5,20.1c2.2-7.8,5.5-15.2,9.6-22L104.7,68.1z"/>
	<path class="st0" d="M150.3,41l-22.9-5.6l6.2,22.4C138.4,51.5,144,45.9,150.3,41z"/>
	<path class="st0" d="M162.8,11.7l-2.7,22.8c6.7-3.9,13.9-7,21.5-9.1L162.8,11.7z"/>
</g>
</svg>
