<?xml version="1.0" encoding="utf-8"?>
<!-- Generator: Adobe Illustrator 22.1.0, SVG Export Plug-In . SVG Version: 6.00 Build 0)  -->
<svg version="1.1" id="Layer_1" xmlns="http://www.w3.org/2000/svg" xmlns:xlink="http://www.w3.org/1999/xlink" x="0px" y="0px"
	 viewBox="0 0 409.1 232.7" style="enable-background:new 0 0 409.1 232.7;" xml:space="preserve">
<style type="text/css">
	.st0{display:none;opacity:0.21;fill:#F9ED23;}
	.st1{opacity:0.21;fill:#F9ED23;}
	.st2{display:none;opacity:0.8;fill:#FFFFFF;}
</style>
<circle class="st0" cx="239.4" cy="115.3" r="88.5"/>
<path class="st1" d="M217.6,108.7c-10.9-27.8-7.8-57.7,5.9-81.8c-4.4,1-8.8,2.3-13.1,4c-45.5,17.9-67.9,69.2-50,114.7
	c17.9,45.5,69.2,67.9,114.7,50c14.9-5.8,27.3-15.2,36.6-26.9C271.7,171.2,233,147.9,217.6,108.7z"/>
<path class="st2" d="M236.5,170.7c0,0-0.1,0-0.1,0c-1.5-21.2-18.6-38.1-39.9-39.1c-5.7-27.5-30.1-48.1-59.3-48.1
	c-24.8,0-46,14.8-55.4,36.1c-1.7-0.2-3.4-0.3-5.2-0.3c-21.8,0-39.5,17.7-39.5,39.5c-20.4,0-37,16.5-37,37s16.5,37,37,37h199.5
	c17.1,0,31-13.9,31-31C267.5,184.5,253.6,170.7,236.5,170.7z"/>
</svg>
