<?xml version="1.0" encoding="utf-8"?>
<!-- Generator: Adobe Illustrator 22.1.0, SVG Export Plug-In . SVG Version: 6.00 Build 0)  -->
<svg version="1.1" id="Layer_1" xmlns="http://www.w3.org/2000/svg" xmlns:xlink="http://www.w3.org/1999/xlink" x="0px" y="0px"
	 viewBox="0 0 409.1 232.7" style="enable-background:new 0 0 409.1 232.7;" xml:space="preserve">
<style type="text/css">
	.st0{opacity:0.76;fill:#E2E0E0;}
	.st1{fill:#78CFE3;}
	.st2{display:none;fill:#F9ED23;}
	.st3{fill:#F9ED23;}
	.st4{display:none;opacity:0.8;fill:#FFFFFF;}
</style>
<path class="st0" d="M395.1,66c0.4-2,0.6-4,0.6-6.2c0-17.9-14.5-32.5-32.5-32.5c-3.1,0-6,0.4-8.8,1.2C343.9,11.4,325,0,303.4,0
	c-33,0-59.8,26.8-59.8,59.8c0,0.2,0,0.4,0,0.5c-16.7,2.9-29.4,17.5-29.4,35c0,19.7,15.9,35.6,35.6,35.6h123
	c20.1,0,36.4-16.3,36.4-36.4C409.1,83,403.7,72.6,395.1,66z"/>
<path class="st1" d="M283.5,153.9c0,2.4-1.9,4.3-4.3,4.3c-2.4,0-4.3-1.9-4.3-4.3c0-2.4,4.3-9.5,4.3-9.5S283.5,151.5,283.5,153.9z"/>
<path class="st1" d="M305.1,171.8c0,2.4-1.9,4.3-4.3,4.3c-2.4,0-4.3-1.9-4.3-4.3c0-2.4,4.3-9.5,4.3-9.5S305.1,169.5,305.1,171.8z"/>
<path class="st1" d="M326.4,153.4c0,2.4-1.9,4.3-4.3,4.3s-4.3-1.9-4.3-4.3c0-2.4,4.3-9.5,4.3-9.5S326.4,151.1,326.4,153.4z"/>
<path class="st1" d="M345.6,171.8c0,2.4-1.9,4.3-4.3,4.3c-2.4,0-4.3-1.9-4.3-4.3c0-2.4,4.3-9.5,4.3-9.5S345.6,169.5,345.6,171.8z"/>
<path class="st1" d="M364.4,153.9c0,2.4-1.9,4.3-4.3,4.3c-2.4,0-4.3-1.9-4.3-4.3c0-2.4,4.3-9.5,4.3-9.5S364.4,151.5,364.4,153.9z"/>
<circle class="st2" cx="239.4" cy="115.3" r="88.5"/>
<path class="st3" d="M217.6,108.7c-10.9-27.8-7.8-57.7,5.9-81.8c-4.4,1-8.8,2.3-13.1,4c-45.5,17.9-67.9,69.2-50,114.7
	c17.9,45.5,69.2,67.9,114.7,50c14.9-5.8,27.3-15.2,36.6-26.9C271.7,171.2,233,147.9,217.6,108.7z"/>
<path class="st4" d="M236.5,170.7c0,0-0.1,0-0.1,0c-1.5-21.2-18.6-38.1-39.9-39.1c-5.7-27.5-30.1-48.1-59.3-48.1
	c-24.8,0-46,14.8-55.4,36.1c-1.7-0.2-3.4-0.3-5.2-0.3c-21.8,0-39.5,17.7-39.5,39.5c-20.4,0-37,16.5-37,37s16.5,37,37,37h199.5
	c17.1,0,31-13.9,31-31C267.5,184.5,253.6,170.7,236.5,170.7z"/>
<path class="st1" d="M91.6,196.8c0,2.4-1.9,4.3-4.3,4.3c-2.4,0-4.3-1.9-4.3-4.3c0-2.4,4.3-9.5,4.3-9.5S91.6,194.4,91.6,196.8z"/>
<path class="st1" d="M113.2,214.7c0,2.4-1.9,4.3-4.3,4.3c-2.4,0-4.3-1.9-4.3-4.3c0-2.4,4.3-9.5,4.3-9.5S113.2,212.4,113.2,214.7z"/>
<path class="st1" d="M134.5,196.3c0,2.4-1.9,4.3-4.3,4.3c-2.4,0-4.3-1.9-4.3-4.3c0-2.4,4.3-9.5,4.3-9.5S134.5,194,134.5,196.3z"/>
<path class="st1" d="M153.7,214.7c0,2.4-1.9,4.3-4.3,4.3c-2.4,0-4.3-1.9-4.3-4.3c0-2.4,4.3-9.5,4.3-9.5S153.7,212.4,153.7,214.7z"/>
<path class="st1" d="M172.5,196.8c0,2.4-1.9,4.3-4.3,4.3c-2.4,0-4.3-1.9-4.3-4.3c0-2.4,4.3-9.5,4.3-9.5S172.5,194.4,172.5,196.8z"/>
<path class="st0" d="M191.6,137.6C191.6,137.6,191.5,137.6,191.6,137.6c-1-13.2-11.6-23.6-24.9-24.3c-3.6-17.1-18.7-29.9-36.8-29.9
	c-15.4,0-28.6,9.2-34.4,22.4c-1.1-0.1-2.1-0.2-3.2-0.2c-13.6,0-24.6,11-24.6,24.6c-12.7,0-23,10.3-23,23c0,12.7,10.3,23,23,23h123.9
	c10.6,0,19.3-8.6,19.3-19.3C210.8,146.2,202.2,137.6,191.6,137.6z"/>
</svg>
