<?xml version="1.0" encoding="utf-8"?>
<!-- Generator: Adobe Illustrator 22.1.0, SVG Export Plug-In . SVG Version: 6.00 Build 0)  -->
<svg version="1.1" id="Layer_1" xmlns="http://www.w3.org/2000/svg" xmlns:xlink="http://www.w3.org/1999/xlink" x="0px" y="0px"
	 viewBox="0 0 409.1 232.7" style="enable-background:new 0 0 409.1 232.7;" xml:space="preserve">
<style type="text/css">
	.st0{opacity:0.76;fill:#E2E0E0;}
	.st1{fill:#F9ED23;}
	.st2{display:none;fill:#F9ED23;}
	.st3{display:none;opacity:0.8;fill:#FFFFFF;}
	.st4{fill:#FFFFFF;}
</style>
<path class="st0" d="M395.1,66c0.4-2,0.6-4,0.6-6.2c0-17.9-14.5-32.5-32.5-32.5c-3.1,0-6,0.4-8.8,1.2C343.9,11.4,325,0,303.4,0
	c-33,0-59.8,26.8-59.8,59.8c0,0.2,0,0.4,0,0.5c-16.7,2.9-29.4,17.5-29.4,35c0,19.7,15.9,35.6,35.6,35.6h123
	c20.1,0,36.4-16.3,36.4-36.4C409.1,83,403.7,72.6,395.1,66z"/>
<circle class="st1" cx="239.4" cy="115.3" r="88.5"/>
<path class="st2" d="M217.6,108.7c-10.9-27.8-7.8-57.7,5.9-81.8c-4.4,1-8.8,2.3-13.1,4c-45.5,17.9-67.9,69.2-50,114.7
	c17.9,45.5,69.2,67.9,114.7,50c14.9-5.8,27.3-15.2,36.6-26.9C271.7,171.2,233,147.9,217.6,108.7z"/>
<path class="st3" d="M236.5,170.7c0,0-0.1,0-0.1,0c-1.5-21.2-18.6-38.1-39.9-39.1c-5.7-27.5-30.1-48.1-59.3-48.1
	c-24.8,0-46,14.8-55.4,36.1c-1.7-0.2-3.4-0.3-5.2-0.3c-21.8,0-39.5,17.7-39.5,39.5c-20.4,0-37,16.5-37,37s16.5,37,37,37h199.5
	c17.1,0,31-13.9,31-31C267.5,184.5,253.6,170.7,236.5,170.7z"/>
<path class="st0" d="M191.6,137.6C191.6,137.6,191.5,137.6,191.6,137.6c-1-13.2-11.6-23.6-24.9-24.3c-3.6-17.1-18.7-29.9-36.8-29.9
	c-15.4,0-28.6,9.2-34.4,22.4c-1.1-0.1-2.1-0.2-3.2-0.2c-13.6,0-24.6,11-24.6,24.6c-12.7,0-23,10.3-23,23c0,12.7,10.3,23,23,23h123.9
	c10.6,0,19.3-8.6,19.3-19.3C210.8,146.2,202.2,137.6,191.6,137.6z"/>
<g>
	<g id="Layer_3_23_">
		<path class="st4" d="M89.5,194.8c0.2,0,0.5-0.1,0.7-0.2c0.7-0.4,0.9-1.3,0.5-1.9c-0.3-0.4-0.7-0.7-1.2-0.7c-0.2,0-0.5,0.1-0.7,0.2
			c-0.6,0.3-0.8,1-0.7,1.6l-1.4,0.8l0.4-1.9l-0.7-0.1l-0.5,2.5l-0.9,0.5l-1.2,0.2l-0.4-1.1v-1l1.9-1.7l-0.5-0.6l-1.4,1.2V191
			c0.6-0.2,1-0.7,1-1.4c0-0.8-0.6-1.4-1.4-1.4c-0.8,0-1.4,0.6-1.4,1.4c0,0.6,0.4,1.2,1,1.4v1.6l-1.4-1.2l-0.5,0.6l1.9,1.7v1
			l-0.4,1.1l-1.2-0.2l-0.9-0.5l-0.5-2.5l-0.7,0.1l0.4,1.9l-1.4-0.8c0.2-0.6-0.1-1.3-0.7-1.6c-0.2-0.1-0.5-0.2-0.7-0.2
			c-0.5,0-1,0.3-1.2,0.7c-0.2,0.3-0.2,0.7-0.1,1.1c0.1,0.4,0.3,0.7,0.7,0.9c0.2,0.1,0.5,0.2,0.7,0.2c0.4,0,0.7-0.2,1-0.4l1.4,0.8
			l-1.8,0.6l0.2,0.7l2.4-0.8l0.9,0.5l0.8,0.9l-0.8,0.9l-0.9,0.5l-2.4-0.8l-0.2,0.7l1.8,0.6l-1.4,0.8c-0.3-0.3-0.6-0.4-1-0.4
			c-0.2,0-0.5,0.1-0.7,0.2c-0.7,0.4-0.9,1.3-0.5,1.9c0.3,0.4,0.7,0.7,1.2,0.7c0.2,0,0.5-0.1,0.7-0.2c0.3-0.2,0.6-0.5,0.7-0.9
			c0.1-0.2,0.1-0.5,0-0.7l1.4-0.8l-0.4,1.9l0.7,0.1l0.5-2.5l0.9-0.5l1.2-0.2l0.4,1.1v1l-1.9,1.7l0.5,0.6l1.4-1.2v1.6
			c-0.6,0.2-1,0.7-1,1.4c0,0.8,0.6,1.4,1.4,1.4c0.8,0,1.4-0.6,1.4-1.4c0-0.6-0.4-1.2-1-1.4v-1.6l1.4,1.2l0.5-0.6l-1.9-1.7v-1
			l0.4-1.1l1.2,0.2l0.9,0.5l0.5,2.5l0.7-0.1l-0.4-1.9l1.4,0.8c-0.2,0.6,0.1,1.3,0.7,1.6c0.2,0.1,0.5,0.2,0.7,0.2
			c0.5,0,1-0.3,1.2-0.7c0.4-0.7,0.2-1.5-0.5-1.9c-0.2-0.1-0.5-0.2-0.7-0.2c-0.4,0-0.7,0.2-1,0.4l-1.4-0.8l1.8-0.6l-0.2-0.7l-2.4,0.8
			l-0.9-0.5l-0.8-0.9l0.8-0.9l0.9-0.5l2.4,0.8l0.2-0.7l-1.8-0.6l1.4-0.8C88.7,194.7,89.1,194.8,89.5,194.8z M89.1,192.9
			c0.1-0.1,0.2-0.1,0.3-0.1c0.2,0,0.5,0.1,0.6,0.3c0.2,0.3,0.1,0.7-0.2,0.9c-0.1,0.1-0.2,0.1-0.3,0.1c-0.2,0-0.5-0.1-0.6-0.3
			C88.7,193.4,88.8,193,89.1,192.9z M77,193.8c-0.1,0.2-0.3,0.3-0.6,0.3c-0.1,0-0.2,0-0.3-0.1c-0.2-0.1-0.3-0.2-0.3-0.4
			c0-0.2,0-0.3,0.1-0.5c0.1-0.2,0.3-0.3,0.6-0.3c0.1,0,0.2,0,0.3,0.1C77.1,193,77.2,193.4,77,193.8z M77.1,201.1
			c0,0.2-0.2,0.3-0.3,0.4c-0.1,0.1-0.2,0.1-0.3,0.1c-0.2,0-0.5-0.1-0.6-0.3c-0.2-0.3-0.1-0.7,0.2-0.9c0.1-0.1,0.2-0.1,0.3-0.1
			c0.2,0,0.5,0.1,0.6,0.3C77.1,200.8,77.1,200.9,77.1,201.1z M88.9,200.6c0.1-0.2,0.3-0.3,0.6-0.3c0.1,0,0.2,0,0.3,0.1
			c0.3,0.2,0.4,0.6,0.2,0.9c-0.1,0.2-0.3,0.3-0.6,0.3c-0.1,0-0.2,0-0.3-0.1C88.8,201.3,88.7,200.9,88.9,200.6z M82.3,189.7
			c0-0.4,0.3-0.7,0.7-0.7c0.4,0,0.7,0.3,0.7,0.7c0,0.4-0.3,0.7-0.7,0.7C82.6,190.3,82.3,190,82.3,189.7z M83.6,204.7
			c0,0.4-0.3,0.7-0.7,0.7c-0.4,0-0.7-0.3-0.7-0.7c0-0.4,0.3-0.7,0.7-0.7C83.3,204,83.6,204.3,83.6,204.7z M84.2,197.9l-0.6-0.1
			l-0.4,0.2l-0.2,0.6l-0.2-0.6l-0.4-0.2l-0.6,0.1l0.4-0.5V197l-0.4-0.5l0.6,0.1l0.4-0.2l0.2-0.6l0.2,0.6l0.4,0.2l0.6-0.1l-0.4,0.5
			v0.5L84.2,197.9z"/>
	</g>
</g>
<g>
	<g id="Layer_3_1_">
		<path class="st4" d="M127.4,212.2c0.2,0,0.5-0.1,0.7-0.2c0.7-0.4,0.9-1.3,0.5-1.9c-0.3-0.4-0.7-0.7-1.2-0.7
			c-0.2,0-0.5,0.1-0.7,0.2c-0.6,0.3-0.8,1-0.7,1.6l-1.4,0.8l0.4-1.9l-0.7-0.1l-0.5,2.5l-0.9,0.5l-1.2,0.2l-0.4-1.1v-1l1.9-1.7
			l-0.5-0.6l-1.4,1.2v-1.6c0.6-0.2,1-0.7,1-1.4c0-0.8-0.6-1.4-1.4-1.4c-0.8,0-1.4,0.6-1.4,1.4c0,0.6,0.4,1.2,1,1.4v1.6l-1.4-1.2
			l-0.5,0.6l1.9,1.7v1l-0.4,1.1l-1.2-0.2l-0.9-0.5l-0.5-2.5l-0.7,0.1l0.4,1.9l-1.4-0.8c0.2-0.6-0.1-1.3-0.7-1.6
			c-0.2-0.1-0.5-0.2-0.7-0.2c-0.5,0-1,0.3-1.2,0.7c-0.2,0.3-0.2,0.7-0.1,1.1c0.1,0.4,0.3,0.7,0.7,0.9c0.2,0.1,0.5,0.2,0.7,0.2
			c0.4,0,0.7-0.2,1-0.4l1.4,0.8l-1.8,0.6l0.2,0.7l2.4-0.8l0.9,0.5l0.8,0.9l-0.8,0.9l-0.9,0.5l-2.4-0.8l-0.2,0.7l1.8,0.6l-1.4,0.8
			c-0.3-0.3-0.6-0.4-1-0.4c-0.2,0-0.5,0.1-0.7,0.2c-0.7,0.4-0.9,1.3-0.5,1.9c0.3,0.4,0.7,0.7,1.2,0.7c0.2,0,0.5-0.1,0.7-0.2
			c0.3-0.2,0.6-0.5,0.7-0.9c0.1-0.2,0.1-0.5,0-0.7l1.4-0.8l-0.4,1.9l0.7,0.1l0.5-2.5l0.9-0.5l1.2-0.2l0.4,1.1v1l-1.9,1.7l0.5,0.6
			l1.4-1.2v1.6c-0.6,0.2-1,0.7-1,1.4c0,0.8,0.6,1.4,1.4,1.4c0.8,0,1.4-0.6,1.4-1.4c0-0.6-0.4-1.2-1-1.4v-1.6l1.4,1.2l0.5-0.6
			l-1.9-1.7v-1l0.4-1.1l1.2,0.2l0.9,0.5l0.5,2.5l0.7-0.1l-0.4-1.9l1.4,0.8c-0.2,0.6,0.1,1.3,0.7,1.6c0.2,0.1,0.5,0.2,0.7,0.2
			c0.5,0,1-0.3,1.2-0.7c0.4-0.7,0.2-1.5-0.5-1.9c-0.2-0.1-0.5-0.2-0.7-0.2c-0.4,0-0.7,0.2-1,0.4l-1.4-0.8l1.8-0.6l-0.2-0.7l-2.4,0.8
			l-0.9-0.5l-0.8-0.9l0.8-0.9l0.9-0.5l2.4,0.8l0.2-0.7l-1.8-0.6l1.4-0.8C126.6,212,127,212.2,127.4,212.2z M127,210.2
			c0.1-0.1,0.2-0.1,0.3-0.1c0.2,0,0.5,0.1,0.6,0.3c0.2,0.3,0.1,0.7-0.2,0.9c-0.1,0.1-0.2,0.1-0.3,0.1c-0.2,0-0.5-0.1-0.6-0.3
			C126.6,210.8,126.7,210.4,127,210.2z M114.9,211.1c-0.1,0.2-0.3,0.3-0.6,0.3c-0.1,0-0.2,0-0.3-0.1c-0.2-0.1-0.3-0.2-0.3-0.4
			c0-0.2,0-0.3,0.1-0.5c0.1-0.2,0.3-0.3,0.6-0.3c0.1,0,0.2,0,0.3,0.1C115,210.4,115.1,210.8,114.9,211.1z M115,218.5
			c0,0.2-0.2,0.3-0.3,0.4c-0.1,0.1-0.2,0.1-0.3,0.1c-0.2,0-0.5-0.1-0.6-0.3c-0.2-0.3-0.1-0.7,0.2-0.9c0.1-0.1,0.2-0.1,0.3-0.1
			c0.2,0,0.5,0.1,0.6,0.3C115,218.1,115,218.3,115,218.5z M126.8,218c0.1-0.2,0.3-0.3,0.6-0.3c0.1,0,0.2,0,0.3,0.1
			c0.3,0.2,0.4,0.6,0.2,0.9c-0.1,0.2-0.3,0.3-0.6,0.3c-0.1,0-0.2,0-0.3-0.1C126.7,218.7,126.6,218.3,126.8,218z M120.2,207
			c0-0.4,0.3-0.7,0.7-0.7c0.4,0,0.7,0.3,0.7,0.7c0,0.4-0.3,0.7-0.7,0.7C120.5,207.7,120.2,207.4,120.2,207z M121.5,222
			c0,0.4-0.3,0.7-0.7,0.7c-0.4,0-0.7-0.3-0.7-0.7c0-0.4,0.3-0.7,0.7-0.7C121.2,221.4,121.5,221.7,121.5,222z M122.1,215.2l-0.6-0.1
			l-0.4,0.2l-0.2,0.6l-0.2-0.6l-0.4-0.2l-0.6,0.1l0.4-0.5v-0.5l-0.4-0.5l0.6,0.1l0.4-0.2l0.2-0.6l0.2,0.6l0.4,0.2l0.6-0.1l-0.4,0.5
			v0.5L122.1,215.2z"/>
	</g>
</g>
<g>
	<g id="Layer_3_2_">
		<path class="st4" d="M160.7,193.4c0.2,0,0.5-0.1,0.7-0.2c0.7-0.4,0.9-1.3,0.5-1.9c-0.3-0.4-0.7-0.7-1.2-0.7
			c-0.2,0-0.5,0.1-0.7,0.2c-0.6,0.3-0.8,1-0.7,1.6l-1.4,0.8l0.4-1.9l-0.7-0.1l-0.5,2.5l-0.9,0.5l-1.2,0.2l-0.4-1.1v-1l1.9-1.7
			L156,190l-1.4,1.2v-1.6c0.6-0.2,1-0.7,1-1.4c0-0.8-0.6-1.4-1.4-1.4c-0.8,0-1.4,0.6-1.4,1.4c0,0.6,0.4,1.2,1,1.4v1.6l-1.4-1.2
			l-0.5,0.6l1.9,1.7v1l-0.4,1.1l-1.2-0.2l-0.9-0.5l-0.5-2.5l-0.7,0.1l0.4,1.9l-1.4-0.8c0.2-0.6-0.1-1.3-0.7-1.6
			c-0.2-0.1-0.5-0.2-0.7-0.2c-0.5,0-1,0.3-1.2,0.7c-0.2,0.3-0.2,0.7-0.1,1.1c0.1,0.4,0.3,0.7,0.7,0.9c0.2,0.1,0.5,0.2,0.7,0.2
			c0.4,0,0.7-0.2,1-0.4l1.4,0.8l-1.8,0.6l0.2,0.7l2.4-0.8l0.9,0.5l0.8,0.9l-0.8,0.9l-0.9,0.5l-2.4-0.8l-0.2,0.7l1.8,0.6l-1.4,0.8
			c-0.3-0.3-0.6-0.4-1-0.4c-0.2,0-0.5,0.1-0.7,0.2c-0.7,0.4-0.9,1.3-0.5,1.9c0.3,0.4,0.7,0.7,1.2,0.7c0.2,0,0.5-0.1,0.7-0.2
			c0.3-0.2,0.6-0.5,0.7-0.9c0.1-0.2,0.1-0.5,0-0.7l1.4-0.8l-0.4,1.9l0.7,0.1l0.5-2.5l0.9-0.5l1.2-0.2l0.4,1.1v1l-1.9,1.7l0.5,0.6
			l1.4-1.2v1.6c-0.6,0.2-1,0.7-1,1.4c0,0.8,0.6,1.4,1.4,1.4s1.4-0.6,1.4-1.4c0-0.6-0.4-1.2-1-1.4v-1.6l1.4,1.2l0.5-0.6l-1.9-1.7v-1
			l0.4-1.1l1.2,0.2l0.9,0.5l0.5,2.5l0.7-0.1l-0.4-1.9l1.4,0.8c-0.2,0.6,0.1,1.3,0.7,1.6c0.2,0.1,0.5,0.2,0.7,0.2
			c0.5,0,1-0.3,1.2-0.7c0.4-0.7,0.2-1.5-0.5-1.9c-0.2-0.1-0.5-0.2-0.7-0.2c-0.4,0-0.7,0.2-1,0.4l-1.4-0.8l1.8-0.6l-0.2-0.7l-2.4,0.8
			l-0.9-0.5l-0.8-0.9l0.8-0.9l0.9-0.5l2.4,0.8l0.2-0.7l-1.8-0.6l1.4-0.8C160,193.3,160.3,193.4,160.7,193.4z M160.4,191.4
			c0.1-0.1,0.2-0.1,0.3-0.1c0.2,0,0.5,0.1,0.6,0.3c0.2,0.3,0.1,0.7-0.2,0.9c-0.1,0.1-0.2,0.1-0.3,0.1c-0.2,0-0.5-0.1-0.6-0.3
			C160,192,160.1,191.6,160.4,191.4z M148.3,192.3c-0.1,0.2-0.3,0.3-0.6,0.3c-0.1,0-0.2,0-0.3-0.1c-0.2-0.1-0.3-0.2-0.3-0.4
			c0-0.2,0-0.3,0.1-0.5c0.1-0.2,0.3-0.3,0.6-0.3c0.1,0,0.2,0,0.3,0.1C148.3,191.6,148.4,192,148.3,192.3z M148.3,199.7
			c0,0.2-0.2,0.3-0.3,0.4c-0.1,0.1-0.2,0.1-0.3,0.1c-0.2,0-0.5-0.1-0.6-0.3c-0.2-0.3-0.1-0.7,0.2-0.9c0.1-0.1,0.2-0.1,0.3-0.1
			c0.2,0,0.5,0.1,0.6,0.3C148.3,199.4,148.4,199.5,148.3,199.7z M160.1,199.2c0.1-0.2,0.3-0.3,0.6-0.3c0.1,0,0.2,0,0.3,0.1
			c0.3,0.2,0.4,0.6,0.2,0.9c-0.1,0.2-0.3,0.3-0.6,0.3c-0.1,0-0.2,0-0.3-0.1C160.1,199.9,160,199.5,160.1,199.2z M153.5,188.3
			c0-0.4,0.3-0.7,0.7-0.7c0.4,0,0.7,0.3,0.7,0.7c0,0.4-0.3,0.7-0.7,0.7C153.8,188.9,153.5,188.6,153.5,188.3z M154.9,203.3
			c0,0.4-0.3,0.7-0.7,0.7c-0.4,0-0.7-0.3-0.7-0.7c0-0.4,0.3-0.7,0.7-0.7C154.6,202.6,154.9,202.9,154.9,203.3z M155.4,196.5
			l-0.6-0.1l-0.4,0.2l-0.2,0.6l-0.2-0.6l-0.4-0.2l-0.6,0.1l0.4-0.5v-0.5l-0.4-0.5l0.6,0.1l0.4-0.2l0.2-0.6l0.2,0.6l0.4,0.2l0.6-0.1
			l-0.4,0.5v0.5L155.4,196.5z"/>
	</g>
</g>
<g>
	<g id="Layer_3_4_">
		<path class="st4" d="M333.6,167.3c0.2,0,0.5-0.1,0.7-0.2c0.7-0.4,0.9-1.3,0.5-1.9c-0.3-0.4-0.7-0.7-1.2-0.7
			c-0.2,0-0.5,0.1-0.7,0.2c-0.6,0.3-0.8,1-0.7,1.6l-1.4,0.8l0.4-1.9l-0.7-0.1l-0.5,2.5l-0.9,0.5l-1.2,0.2l-0.4-1.1v-1l1.9-1.7
			l-0.5-0.6l-1.4,1.2v-1.6c0.6-0.2,1-0.7,1-1.4c0-0.8-0.6-1.4-1.4-1.4s-1.4,0.6-1.4,1.4c0,0.6,0.4,1.2,1,1.4v1.6l-1.4-1.2l-0.5,0.6
			l1.9,1.7v1l-0.4,1.1l-1.2-0.2l-0.9-0.5l-0.5-2.5l-0.7,0.1l0.4,1.9l-1.4-0.8c0.2-0.6-0.1-1.3-0.7-1.6c-0.2-0.1-0.5-0.2-0.7-0.2
			c-0.5,0-1,0.3-1.2,0.7c-0.2,0.3-0.2,0.7-0.1,1.1c0.1,0.4,0.3,0.7,0.7,0.9c0.2,0.1,0.5,0.2,0.7,0.2c0.4,0,0.7-0.2,1-0.4l1.4,0.8
			l-1.8,0.6l0.2,0.7l2.4-0.8l0.9,0.5l0.8,0.9l-0.8,0.9l-0.9,0.5l-2.4-0.8l-0.2,0.7l1.8,0.6l-1.4,0.8c-0.3-0.3-0.6-0.4-1-0.4
			c-0.2,0-0.5,0.1-0.7,0.2c-0.7,0.4-0.9,1.3-0.5,1.9c0.3,0.4,0.7,0.7,1.2,0.7c0.2,0,0.5-0.1,0.7-0.2c0.3-0.2,0.6-0.5,0.7-0.9
			c0.1-0.2,0.1-0.5,0-0.7l1.4-0.8l-0.4,1.9l0.7,0.1l0.5-2.5l0.9-0.5l1.2-0.2l0.4,1.1v1l-1.9,1.7l0.5,0.6l1.4-1.2v1.6
			c-0.6,0.2-1,0.7-1,1.4c0,0.8,0.6,1.4,1.4,1.4s1.4-0.6,1.4-1.4c0-0.6-0.4-1.2-1-1.4v-1.6l1.4,1.2l0.5-0.6l-1.9-1.7v-1l0.4-1.1
			l1.2,0.2l0.9,0.5l0.5,2.5l0.7-0.1l-0.4-1.9l1.4,0.8c-0.2,0.6,0.1,1.3,0.7,1.6c0.2,0.1,0.5,0.2,0.7,0.2c0.5,0,1-0.3,1.2-0.7
			c0.4-0.7,0.2-1.5-0.5-1.9c-0.2-0.1-0.5-0.2-0.7-0.2c-0.4,0-0.7,0.2-1,0.4l-1.4-0.8l1.8-0.6l-0.2-0.7l-2.4,0.8l-0.9-0.5l-0.8-0.9
			l0.8-0.9l0.9-0.5l2.4,0.8l0.2-0.7l-1.8-0.6l1.4-0.8C332.9,167.2,333.3,167.3,333.6,167.3z M333.3,165.3c0.1-0.1,0.2-0.1,0.3-0.1
			c0.2,0,0.5,0.1,0.6,0.3c0.2,0.3,0.1,0.7-0.2,0.9c-0.1,0.1-0.2,0.1-0.3,0.1c-0.2,0-0.5-0.1-0.6-0.3
			C332.9,165.9,333,165.5,333.3,165.3z M321.2,166.2c-0.1,0.2-0.3,0.3-0.6,0.3c-0.1,0-0.2,0-0.3-0.1c-0.2-0.1-0.3-0.2-0.3-0.4
			c0-0.2,0-0.3,0.1-0.5c0.1-0.2,0.3-0.3,0.6-0.3c0.1,0,0.2,0,0.3,0.1C321.3,165.5,321.4,165.9,321.2,166.2z M321.3,173.6
			c0,0.2-0.2,0.3-0.3,0.4c-0.1,0.1-0.2,0.1-0.3,0.1c-0.2,0-0.5-0.1-0.6-0.3c-0.2-0.3-0.1-0.7,0.2-0.9c0.1-0.1,0.2-0.1,0.3-0.1
			c0.2,0,0.5,0.1,0.6,0.3C321.3,173.3,321.3,173.4,321.3,173.6z M333.1,173.1c0.1-0.2,0.3-0.3,0.6-0.3c0.1,0,0.2,0,0.3,0.1
			c0.3,0.2,0.4,0.6,0.2,0.9c-0.1,0.2-0.3,0.3-0.6,0.3c-0.1,0-0.2,0-0.3-0.1C333,173.8,332.9,173.4,333.1,173.1z M326.5,162.2
			c0-0.4,0.3-0.7,0.7-0.7c0.4,0,0.7,0.3,0.7,0.7c0,0.4-0.3,0.7-0.7,0.7C326.8,162.8,326.5,162.5,326.5,162.2z M327.8,177.2
			c0,0.4-0.3,0.7-0.7,0.7c-0.4,0-0.7-0.3-0.7-0.7c0-0.4,0.3-0.7,0.7-0.7C327.5,176.5,327.8,176.8,327.8,177.2z M328.3,170.4
			l-0.6-0.1l-0.4,0.2l-0.2,0.6l-0.2-0.6l-0.4-0.2l-0.6,0.1l0.4-0.5v-0.5l-0.4-0.5l0.6,0.1l0.4-0.2l0.2-0.6l0.2,0.6l0.4,0.2l0.6-0.1
			l-0.4,0.5v0.5L328.3,170.4z"/>
	</g>
</g>
<g>
	<g id="Layer_3_3_">
		<path class="st4" d="M367,148.6c0.2,0,0.5-0.1,0.7-0.2c0.7-0.4,0.9-1.3,0.5-1.9c-0.3-0.4-0.7-0.7-1.2-0.7c-0.2,0-0.5,0.1-0.7,0.2
			c-0.6,0.3-0.8,1-0.7,1.6l-1.4,0.8l0.4-1.9l-0.7-0.1l-0.5,2.5l-0.9,0.5l-1.2,0.2l-0.4-1.1v-1l1.9-1.7l-0.5-0.6l-1.4,1.2v-1.6
			c0.6-0.2,1-0.7,1-1.4c0-0.8-0.6-1.4-1.4-1.4s-1.4,0.6-1.4,1.4c0,0.6,0.4,1.2,1,1.4v1.6l-1.4-1.2l-0.5,0.6l1.9,1.7v1l-0.4,1.1
			l-1.2-0.2l-0.9-0.5l-0.5-2.5l-0.7,0.1l0.4,1.9l-1.4-0.8c0.2-0.6-0.1-1.3-0.7-1.6c-0.2-0.1-0.5-0.2-0.7-0.2c-0.5,0-1,0.3-1.2,0.7
			c-0.2,0.3-0.2,0.7-0.1,1.1c0.1,0.4,0.3,0.7,0.7,0.9c0.2,0.1,0.5,0.2,0.7,0.2c0.4,0,0.7-0.2,1-0.4l1.4,0.8l-1.8,0.6l0.2,0.7
			l2.4-0.8l0.9,0.5l0.8,0.9l-0.8,0.9l-0.9,0.5l-2.4-0.8l-0.2,0.7l1.8,0.6l-1.4,0.8c-0.3-0.3-0.6-0.4-1-0.4c-0.2,0-0.5,0.1-0.7,0.2
			c-0.7,0.4-0.9,1.3-0.5,1.9c0.3,0.4,0.7,0.7,1.2,0.7c0.2,0,0.5-0.1,0.7-0.2c0.3-0.2,0.6-0.5,0.7-0.9c0.1-0.2,0.1-0.5,0-0.7l1.4-0.8
			l-0.4,1.9l0.7,0.1l0.5-2.5l0.9-0.5l1.2-0.2l0.4,1.1v1l-1.9,1.7l0.5,0.6l1.4-1.2v1.6c-0.6,0.2-1,0.7-1,1.4c0,0.8,0.6,1.4,1.4,1.4
			c0.8,0,1.4-0.6,1.4-1.4c0-0.6-0.4-1.2-1-1.4v-1.6l1.4,1.2l0.5-0.6l-1.9-1.7v-1l0.4-1.1l1.2,0.2l0.9,0.5l0.5,2.5l0.7-0.1l-0.4-1.9
			l1.4,0.8c-0.2,0.6,0.1,1.3,0.7,1.6c0.2,0.1,0.5,0.2,0.7,0.2c0.5,0,1-0.3,1.2-0.7c0.4-0.7,0.2-1.5-0.5-1.9
			c-0.2-0.1-0.5-0.2-0.7-0.2c-0.4,0-0.7,0.2-1,0.4l-1.4-0.8l1.8-0.6l-0.2-0.7l-2.4,0.8l-0.9-0.5l-0.8-0.9l0.8-0.9l0.9-0.5l2.4,0.8
			l0.2-0.7l-1.8-0.6l1.4-0.8C366.2,148.4,366.6,148.6,367,148.6z M366.6,146.6c0.1-0.1,0.2-0.1,0.3-0.1c0.2,0,0.5,0.1,0.6,0.3
			c0.2,0.3,0.1,0.7-0.2,0.9c-0.1,0.1-0.2,0.1-0.3,0.1c-0.2,0-0.5-0.1-0.6-0.3C366.2,147.2,366.3,146.8,366.6,146.6z M354.5,147.5
			c-0.1,0.2-0.3,0.3-0.6,0.3c-0.1,0-0.2,0-0.3-0.1c-0.2-0.1-0.3-0.2-0.3-0.4c0-0.2,0-0.3,0.1-0.5c0.1-0.2,0.3-0.3,0.6-0.3
			c0.1,0,0.2,0,0.3,0.1C354.6,146.8,354.7,147.2,354.5,147.5z M354.6,154.9c0,0.2-0.2,0.3-0.3,0.4c-0.1,0.1-0.2,0.1-0.3,0.1
			c-0.2,0-0.5-0.1-0.6-0.3c-0.2-0.3-0.1-0.7,0.2-0.9c0.1-0.1,0.2-0.1,0.3-0.1c0.2,0,0.5,0.1,0.6,0.3
			C354.6,154.5,354.6,154.7,354.6,154.9z M366.4,154.4c0.1-0.2,0.3-0.3,0.6-0.3c0.1,0,0.2,0,0.3,0.1c0.3,0.2,0.4,0.6,0.2,0.9
			c-0.1,0.2-0.3,0.3-0.6,0.3c-0.1,0-0.2,0-0.3-0.1C366.3,155.1,366.2,154.7,366.4,154.4z M359.8,143.4c0-0.4,0.3-0.7,0.7-0.7
			c0.4,0,0.7,0.3,0.7,0.7c0,0.4-0.3,0.7-0.7,0.7C360.1,144.1,359.8,143.8,359.8,143.4z M361.1,158.4c0,0.4-0.3,0.7-0.7,0.7
			c-0.4,0-0.7-0.3-0.7-0.7c0-0.4,0.3-0.7,0.7-0.7C360.8,157.8,361.1,158.1,361.1,158.4z M361.7,151.6l-0.6-0.1l-0.4,0.2l-0.2,0.6
			l-0.2-0.6l-0.4-0.2l-0.6,0.1l0.4-0.5v-0.5l-0.4-0.5l0.6,0.1l0.4-0.2l0.2-0.6l0.2,0.6l0.4,0.2l0.6-0.1l-0.4,0.5v0.5L361.7,151.6z"
			/>
	</g>
</g>
</svg>
